<svg height="512" viewBox="0 0 128 128" width="512" xmlns="http://www.w3.org/2000/svg" xmlns:xlink="http://www.w3.org/1999/xlink"><linearGradient id="linear-gradient" gradientUnits="userSpaceOnUse" x1="105.852" x2="10.925" y1="112.024" y2="17.098"><stop offset="0" stop-color="#ff8243"/><stop offset="1" stop-color="#ffe477"/></linearGradient><g id="Layer_2" data-name="Layer 2"><path d="m110.162 54.236a1.75 1.75 0 1 1 3.393-.861c.454 1.786.874 3.622 1.249 5.457a1.75 1.75 0 0 1 -1.365 2.065 1.808 1.808 0 0 1 -.352.035 1.751 1.751 0 0 1 -1.713-1.4c-.364-1.78-.774-3.562-1.212-5.296zm6.827 20.36a1.75 1.75 0 1 0 -3.49.266c.256 3.355.386 6.8.386 10.247 0 21.72-21.749 39.391-48.481 39.391-19.285 0-33.369-5.531-41.862-16.441-14.842-19.059-7.842-47.604-7.542-48.809l11.623-45.926.356 6.562a40.955 40.955 0 0 0 20.745 33.641 1.749 1.749 0 0 0 1.914-.125 38.894 38.894 0 0 0 15.357-30.95v-14.723l20.661 32.265a1.749 1.749 0 0 0 2.947 0l8.746-13.656a78.494 78.494 0 0 1 6.863 13.037 1.75 1.75 0 1 0 3.227-1.357c-4.346-10.329-8.629-15.678-8.81-15.9a1.731 1.731 0 0 0 -1.457-.646 1.75 1.75 0 0 0 -1.376.8l-8.666 13.53-22.412-34.995a1.75 1.75 0 0 0 -3.224.943v20.7a35.4 35.4 0 0 1 -13.05 27.442 37.485 37.485 0 0 1 -17.97-30.192l-.981-18.045a1.75 1.75 0 0 0 -3.444-.335l-14.439 57.072c-.322 1.273-7.708 31.423 8.17 51.817 9.191 11.806 24.204 17.791 44.62 17.791 28.663 0 51.981-19.24 51.981-42.891.004-3.532-.13-7.069-.392-10.509zm-76.007 32.265a1.749 1.749 0 0 1 0-2.475l37.9-37.9a1.749 1.749 0 0 1 2.475 0l5.657 5.656a1.749 1.749 0 0 1 0 2.475l-37.9 37.9a1.749 1.749 0 0 1 -2.475 0zm3.712-1.237 3.182 3.182 35.428-35.43-3.182-3.182zm3.277-26.678a1.75 1.75 0 0 0 0 3.5 8.975 8.975 0 1 0 -8.971-8.974 1.75 1.75 0 0 0 3.5 0 5.475 5.475 0 1 1 5.475 5.475zm23.082 26.582a8.975 8.975 0 1 1 8.975 8.975 8.985 8.985 0 0 1 -8.974-8.975zm3.5 0a5.475 5.475 0 1 0 5.475-5.475 5.481 5.481 0 0 0 -5.474 5.475z" fill="url(#linear-gradient)"/></g></svg>